<svg width="109" height="108" viewBox="0 0 109 108" fill="none" xmlns="http://www.w3.org/2000/svg">
<g filter="url(#filter0_d_2_270)">
<path d="M54.3999 100C82.0141 100 104.4 77.6142 104.4 50C104.4 22.3858 82.0141 0 54.3999 0C26.7857 0 4.3999 22.3858 4.3999 50C4.3999 77.6142 26.7857 100 54.3999 100Z" fill="#B00000" fill-opacity="0.15"/>
<path d="M47.642 75.601C47.8617 75.6965 48.0986 75.7459 48.3382 75.7462C49.0499 75.7445 49.6907 75.3139 49.9606 74.6554L51.3846 71.2142C53.117 71.4509 54.8737 71.4484 56.6054 71.2068L58.0354 74.6512C58.2113 75.0842 58.5531 75.4289 58.9847 75.6084C59.4163 75.7878 59.9017 75.7872 60.3328 75.6066L66.2851 73.1387C66.7246 72.9582 67.0731 72.6085 67.2521 72.1683C67.4275 71.743 67.4231 71.2648 67.24 70.8427L65.8161 67.3932C67.2096 66.3378 68.4522 65.0967 69.5091 63.7044L72.9383 65.1237C73.3705 65.3105 73.8597 65.3156 74.2957 65.1378C74.7316 64.96 75.0778 64.6143 75.2561 64.1785L77.7274 58.2187C77.9053 57.789 77.9065 57.3065 77.7306 56.876C77.5551 56.4408 77.2109 56.0951 76.7765 55.9177L74.3352 54.9013L34.5577 54.5386L31.1917 55.926C30.3089 56.3052 29.8974 57.3257 30.2703 58.2112L32.7315 64.1821C32.9107 64.6104 33.2523 64.9502 33.6814 65.1273C34.1108 65.3085 34.5951 65.3093 35.0251 65.1296L38.4774 63.7038C39.5362 65.0971 40.779 66.3403 42.1718 67.3996L40.7564 70.8212C40.5664 71.2487 40.5587 71.735 40.7351 72.1682C40.9137 72.6072 41.2609 72.9563 41.6989 73.1371L47.642 75.601Z" stroke="#B00000" stroke-width="3"/>
<path d="M73.4716 55.2471H73.4708H37.8489C31.8572 55.2471 27 50.3898 27 44.3981C27 38.4064 31.8572 33.5492 37.8489 33.5492C37.9245 33.5492 37.992 33.5497 38.055 33.5511L39.0616 33.574L39.4641 32.6512C41.4908 28.0042 46.0787 25 51.1484 25C56.2182 25 60.806 28.0042 62.8328 32.6512L63.2159 33.5295L64.1739 33.5511C67.8845 33.6348 71.2019 35.885 72.6517 39.3017L73.014 40.1557L73.9399 40.213C77.9981 40.4638 81.1229 43.8932 80.9963 47.9571C80.8697 52.021 77.5375 55.2493 73.4716 55.2471Z" stroke="#B00000" stroke-width="3"/>
<path d="M53.9961 65.5468H53.9981C59.998 65.523 65.37 61.824 67.5326 56.2274C67.6898 55.8261 67.6197 55.3713 67.3489 55.0359C67.078 54.7004 66.6479 54.5361 66.2223 54.6055C65.797 54.6748 65.4416 54.9668 65.2911 55.3705C63.5028 60.0534 59.01 63.1471 53.9971 63.1471C48.9842 63.1471 44.4914 60.0534 42.7031 55.3704C42.5526 54.9668 42.1972 54.6748 41.7719 54.6055C41.3463 54.5361 40.9162 54.7004 40.6453 55.0359C40.3745 55.3713 40.3044 55.8261 40.4616 56.2273C42.6242 61.824 47.9962 65.523 53.9961 65.5468Z" fill="#B00000" stroke="#B00000" stroke-width="0.5"/>
</g>
<defs>
<filter id="filter0_d_2_270" x="0.399902" y="0" width="108" height="108" filterUnits="userSpaceOnUse" color-interpolation-filters="sRGB">
<feFlood flood-opacity="0" result="BackgroundImageFix"/>
<feColorMatrix in="SourceAlpha" type="matrix" values="0 0 0 0 0 0 0 0 0 0 0 0 0 0 0 0 0 0 127 0" result="hardAlpha"/>
<feOffset dy="4"/>
<feGaussianBlur stdDeviation="2"/>
<feComposite in2="hardAlpha" operator="out"/>
<feColorMatrix type="matrix" values="0 0 0 0 0 0 0 0 0 0 0 0 0 0 0 0 0 0 0.25 0"/>
<feBlend mode="normal" in2="BackgroundImageFix" result="effect1_dropShadow_2_270"/>
<feBlend mode="normal" in="SourceGraphic" in2="effect1_dropShadow_2_270" result="shape"/>
</filter>
</defs>
</svg>
